# xmcd
#
# Track frame offsets:
#	150
#	16355
#	36237
#
# Disc length: 727 seconds
#
# Revision: 0
# Processed by: cddbd v1.5.1PL2 Copyright (c) Steve Scherf et al.
# Submitted via: MusicWizard 7.2.0
#
DISCID=1c02d503
DTITLE=Al Bano and Romina Power - Na Na Na
DYEAR=1900
DGENRE=
TTITLE0=Na Na Na
TTITLE1=Everybody Loves
TTITLE2=Na Na Na
EXTD=
EXTT0=
EXTT1=
EXTT2=
PLAYORDER=
